<!-- Generated by IcoMoon.io -->
<svg version="1.1" xmlns="http://www.w3.org/2000/svg" width="24px" height="24px" viewBox="0 0 28 28">
<title>fleur_de_lys</title>
<path d="M19.557 21.783c0.514-0.765 0.47-2.439-0.558-3.030-0.787-0.393-1.675-0.239-2.090 0.099-0.668 0.404-1.312 1.697-1.312 3.005l2.307-0.003-0.001 2.576-4.788-0.003c0.063 1.325 0.785 2.387 2.13 2.978-0.173 0.558-0.984 1.697-2.098 1.62-0.22 1.204-0.429 1.881-1.43 2.975-1.002-1.094-1.211-1.771-1.431-2.975-1.114 0.077-1.924-1.061-2.098-1.62 1.345-0.591 2.067-1.652 2.13-2.978l-4.789 0.003v-2.576l2.307 0.003c0-1.309-0.643-2.601-1.311-3.005-0.415-0.338-1.303-0.492-2.089-0.099-1.029 0.591-1.073 2.266-0.559 3.030-4.858-0.902-4.376-5.594-2.721-7.297 1.338-1.376 2.796-1.591 3.92-1.157 2.556 0.916 4.274 3.969 4.358 8.529h1.336c0-4.145-0.721-5.467-2.601-10.673-0.947-2.46-0.378-5.502 1.314-8.303 0.606-1.004 1.363-1.91 2.233-2.881 0.869 0.971 1.627 1.877 2.233 2.881 1.692 2.801 2.261 5.843 1.315 8.303-1.88 5.206-2.602 6.528-2.602 10.673h1.336c0.084-4.56 1.803-7.613 4.358-8.529 1.124-0.434 2.584-0.219 3.921 1.157 1.655 1.703 2.137 6.395-2.722 7.297z"></path>
</svg>
